<svg width="126.4" height="40" viewBox="0 0 632 200" fill="#000000" xmlns="http://www.w3.org/2000/svg"><path d="M326.197 171.29c.2.611.708.81 1.216.81l14.076-.034c.707-.007 1.009-.412.81-1.12L289.785 27.783c-.206-.604-.714-.804-1.216-.804l-17.619.042c-.508 0-1.016.206-1.215.817l-51.787 143.424c-.206.707.103 1.113.811 1.113l14.076-.042c.508 0 1.009-.199 1.208-.81l45.051-126.594c.302-.817 1.112-.817 1.414-.007l45.689 126.368zM439.356 107.306c-.062-24.102-14.983-37.533-39.99-37.464-12.051.027-22.268 4.305-29.34 12.325-.605.708-1.209.508-1.319-.302l-1.236-8.906c-.103-.707-.405-.913-1.016-.913l-11.542.034c-.605 0-1.01.405-1.01 1.01l.248 97.925c0 .611.405 1.017 1.016 1.01l12.758-.028c.611 0 1.009-.405 1.009-1.016l-.144-58.738c-.048-18.12 10.759-29.595 27.974-29.636 17.619-.048 27.767 9.647 27.815 26.965l.151 61.272c0 .604.412 1.009 1.017 1.009l12.758-.034c.611 0 1.009-.405 1.009-1.017l-.158-63.496zM539.269 170.35l-37.394-50.944c-.309-.508-.309-1.01.096-1.422l36.948-45.155c.508-.707.199-1.215-.611-1.215l-15.189.041c-.508 0-.913.206-1.215.611l-32.403 39.374a1.442 1.442 0 01-1.215.611l-15.8.041c-.604 0-1.009-.405-1.016-1.009l-.206-83.753c0-.605-.412-1.01-1.016-1.01l-12.758.035c-.611 0-1.016.405-1.009 1.016l.357 143.191c0 .604.412 1.009 1.016 1.009l12.758-.034c.611 0 1.009-.405 1.009-1.016l-.11-43.844c0-.611.406-1.016 1.01-1.016l15.6-.042c.502 0 .907.096 1.216.605l32.416 44.578c.302.508.707.604 1.215.604l15.697-.041c.81 0 1.112-.611.604-1.215zM631.362 106.015c-.062-23.697-16.5-36.723-42.016-36.654-25.014.061-39.763 12.25-43.258 32.314-.103.708.206 1.113.913 1.106l12.861-.028c.611-.006 1.009-.309 1.112-.913 2.802-13.48 12.504-20.29 28.4-20.325 18.031-.048 27.569 8.233 27.61 23.724l.013 7.293c.007.611-.398 1.016-1.009 1.016l-37.264.096c-22.989.055-36.832 11.838-36.783 29.966.048 18.732 15.669 29.932 40.683 29.87 1.772 0 3.536-.068 5.301-.199a63.83 63.83 0 004.971-.563c1.552-.24 3.09-.549 4.608-.934a41.521 41.521 0 004.243-1.311 36.791 36.791 0 003.887-1.683 31.524 31.524 0 003.522-2.06 31.623 31.623 0 003.165-2.437 30.026 30.026 0 002.802-2.816l.096-.11c.831-.954 2.41-.37 2.41.9v7.684c0 .755.618 1.373 1.373 1.373h11.083c.755 0 1.373-.618 1.373-1.373V140.76l-.089-34.752-.007.007zm-47.557 55.414c-17.317.041-27.054-6.818-27.081-18.059-.027-10.836 8.562-17.339 23.147-17.38l36.351-.089c.611 0 1.016.405 1.016 1.009v2.232c.062 20.861-11.556 32.232-33.433 32.287zM89.255 78.46l10.927-28.064L111.11 78.46l32.929-4.19C121.496 56.185 105.793 29.93 101.418 0h-2.471c-4.375 29.93-20.078 56.185-42.621 74.27l32.923 4.19h.006zM158.539 84.23l-10.45 14.665-6.47-4.846-11.743 13.787-15.646-18.824-9.278 15.379 7.412 23.065-8.176 27.573-4.006 12.59-4.005-12.59L88 127.456l7.413-23.065-9.278-15.379-15.647 18.824-11.742-13.787-6.47 4.846-10.45-14.665A116.267 116.267 0 01.186 98.76v2.471c50.988 7.451 91.317 47.767 98.767 98.768h2.471c7.451-51.001 47.773-91.317 98.761-98.768v-2.47a116.387 116.387 0 01-41.64-14.532h-.006z" fill="#FA4515"></path></svg>